<svg xmlns="http://www.w3.org/2000/svg" viewBox="0 0 448 512" fill="#7c4dff">
  <path d="M224,202.66A53.34,53.34,0,1,0,277.34,256,53.38,53.38,0,0,0,224,202.66Zm124.71-41a54,54,0,0,0-30.61-30.61C293.9,120,224,120,224,120s-69.9,0-94.1,11a54,54,0,0,0-30.61,30.61C88,162.9,88,232.8,88,232.8s0,69.9,11,94.1a54,54,0,0,0,30.61,30.61c24.2,11,94.1,11,94.1,11s69.9,0,94.1-11a54,54,0,0,0,30.61-30.61c11-24.2,11-94.1,11-94.1S359.71,162.9,348.71,161.71ZM224,338a82,82,0,1,1,82-82A82,82,0,0,1,224,338Zm85.38-148.71a19.11,19.11,0,1,1,19.11-19.11A19.1,19.1,0,0,1,309.38,189.29Z"/>
</svg>
